<svg width="256" height="256" viewBox="0 0 256 256" fill="none" xmlns="http://www.w3.org/2000/svg">
<path d="M67.4756 162.823C79.6756 183.855 102.435 198 128.5 198C163.868 198 193.152 171.956 198.223 138H224.434C219.201 186.356 178.247 224 128.5 224C95.2839 224 65.9897 207.217 48.6299 181.669L32.5 197.8V138H92.2998L67.4756 162.823ZM128.5 31C161.922 31 191.375 47.9919 208.693 73.8076L224.302 58.2002V115.845C224.388 116.561 224.467 117.279 224.537 118H164.5L189.815 92.6846C177.689 71.373 154.774 57 128.5 57C92.7857 57 63.2751 83.5567 58.6357 118H32.4629C37.235 69.1636 78.4101 31 128.5 31Z" fill="black"/>
</svg>
